<?xml version="1.0" encoding="UTF-8" standalone="no"?>
<svg
   viewBox="0 0 48 48"
   style="enable-background:new 0 0 48 48"
   xml:space="preserve"
   version="1.1"
   id="svg11"
   xmlns="http://www.w3.org/2000/svg"><defs
     id="defs15" /><style
     id="style2">.st3{display:none}</style><g
     id="Your_Icons"><path
       d="M0-.004h48v48H0v-48z"
       style="fill:none"
       id="path4" /><path
       d="M34.943 9.996h-3v-4a2 2 0 0 0-2-2h-12a2 2 0 0 0-2 2v4h-3a2 2 0 0 0-2 2v30a2 2 0 0 0 2 2h22a2 2 0 0 0 2-2v-30a2 2 0 0 0-2-2zm-15-2h8v2h-8v-2zm13 32h-18v-26h18v26z"
       id="path6"
       style="fill:#ffffff;fill-opacity:1" /><path
       d="M17.943 31.053h12v5.943h-12z"
       id="path8"
       style="fill:#ffffff;fill-opacity:1" /></g></svg>
