<?xml version="1.0" encoding="UTF-8" standalone="no"?>
<svg
   viewBox="0 0 48 48"
   style="enable-background:new 0 0 48 48"
   xml:space="preserve"
   version="1.1"
   id="svg9"
   xmlns="http://www.w3.org/2000/svg"><defs
     id="defs13" /><style
     id="style2">.st3{display:none}</style><g
     id="Your_Icons"><path
       d="M0 0h48v48H0V0z"
       style="fill:none"
       id="path4" /><path
       d="M35 9.992h-3v-4a2 2 0 0 0-2-2H18a2 2 0 0 0-2 2v4h-3a2 2 0 0 0-2 2v30a2 2 0 0 0 2 2h22a2 2 0 0 0 2-2v-30a2 2 0 0 0-2-2zm-15-2h8v2h-8v-2zm13 32H15v-26h18v26z"
       id="path6"
       style="fill:#ffffff;fill-opacity:1" /></g></svg>
